<?xml version="1.0" encoding="UTF-8"?>
<svg width="800px" height="600px" viewBox="0 0 800 600" version="1.1" xmlns="http://www.w3.org/2000/svg">
    <rect width="100%" height="100%" fill="#f8f9fa"/>
    <g transform="translate(200,150)">
        <path d="M200,100 C200,44.77 155.23,0 100,0 C44.77,0 0,44.77 0,100 C0,155.23 44.77,200 100,200 C155.23,200 200,155.23 200,100" fill="#007bff" opacity="0.1"/>
        <path d="M150,75 C150,33.58 116.42,0 75,0 C33.58,0 0,33.58 0,75 C0,116.42 33.58,150 75,150 C116.42,150 150,116.42 150,75" fill="#28a745" opacity="0.1"/>
        <rect x="50" y="50" width="100" height="100" rx="10" fill="#007bff"/>
        <rect x="70" y="70" width="60" height="60" rx="5" fill="white"/>
    </g>
    <text x="400" y="400" font-family="Arial" font-size="24" fill="#212529" text-anchor="middle">Cloud Infrastructure</text>
</svg>
